<svg width="24" height="24" viewBox="0 0 56 54" fill="none" xmlns="http://www.w3.org/2000/svg">
<g clip-path="url(#clip0)">
<path d="M28.9655 4.5C41.3879 4.5 51.4943 14.5935 51.4943 27C51.4943 39.4065 41.3879 49.5 28.9655 49.5C16.5432 49.5 6.43678 39.4065 6.43678 27C6.43678 14.5935 16.5432 4.5 28.9655 4.5ZM28.9655 0C14.0357 0 1.93103 12.0893 1.93103 27C1.93103 41.9108 14.0357 54 28.9655 54C43.8953 54 56 41.9108 56 27C56 12.0893 43.8953 0 28.9655 0ZM28.9655 13.5C21.5017 13.5 15.4483 19.5435 15.4483 27C15.4483 32.9647 19.321 38.025 24.6941 39.8092C25.3699 39.9353 25.5862 39.5168 25.5862 39.159V36.6458C21.8262 37.4625 21.0422 35.055 21.0422 35.055C20.4294 33.4958 19.5417 33.0795 19.5417 33.0795C18.3162 32.2402 19.6341 32.2583 19.6341 32.2583C20.9926 32.3527 21.7068 33.651 21.7068 33.651C22.912 35.7143 24.8675 35.118 25.6403 34.7738C25.7619 33.9007 26.1111 33.3068 26.4986 32.9692C23.4955 32.6273 20.3415 31.4685 20.3415 26.298C20.3415 24.8242 20.8687 23.6205 21.7338 22.6755C21.5941 22.3312 21.13 20.9565 21.8645 19.098C21.8645 19.098 22.9999 18.7357 25.5817 20.4817C26.6608 20.1825 27.8165 20.034 28.9655 20.0273C30.1145 20.0317 31.2702 20.1825 32.3516 20.4817C34.9334 18.7357 36.0643 19.098 36.0643 19.098C36.801 20.9565 36.3369 22.3313 36.1995 22.671C37.0668 23.616 37.5895 24.8197 37.5895 26.2935C37.5895 31.4797 34.4265 32.6205 31.4166 32.9535C31.9033 33.372 32.3448 34.1932 32.3448 35.4533V39.1567C32.3448 39.5168 32.5611 39.9375 33.246 39.8047C38.6146 38.0205 42.4828 32.9625 42.4828 27C42.4828 19.5435 36.4293 13.5 28.9655 13.5Z" fill="url(#paint0_linear)"/>
</g>
<defs>
<linearGradient id="paint0_linear" x1="-6.6564" y1="63.8471" x2="55.9184" y2="-0.0798477" gradientUnits="userSpaceOnUse">
<stop stop-color="#5AEDED"/>
<stop offset="1" stop-color="#6596F6" stop-opacity="0.79"/>
</linearGradient>
<clipPath id="clip0">
<rect width="56" height="54" fill="white"/>
</clipPath>
</defs>
</svg>
