<svg width="24" height="24" viewBox="0 0 56 54" fill="none" xmlns="http://www.w3.org/2000/svg">
<path d="M28 4.5C40.866 4.5 51.3333 14.5935 51.3333 27C51.3333 39.4065 40.866 49.5 28 49.5C15.134 49.5 4.66667 39.4065 4.66667 27C4.66667 14.5935 15.134 4.5 28 4.5ZM28 0C12.537 0 0 12.0893 0 27C0 41.9108 12.537 54 28 54C43.463 54 56 41.9108 56 27C56 12.0893 43.463 0 28 0ZM43.1667 19.7505C42.1377 20.1915 41.0293 20.4885 39.8673 20.6235C41.055 19.9373 41.9627 18.8527 42.3943 17.559C41.2837 18.1935 40.054 18.6548 38.745 18.9023C37.6997 17.8245 36.204 17.1518 34.5543 17.1518C30.8443 17.1518 28.119 20.4885 28.9567 23.9535C24.185 23.7218 19.95 21.5168 17.1173 18.1665C15.6123 20.655 16.338 23.913 18.8953 25.5623C17.955 25.533 17.0707 25.2833 16.296 24.8693C16.233 27.4343 18.1417 29.835 20.9043 30.3705C20.097 30.582 19.2103 30.6315 18.3097 30.465C19.04 32.6655 21.1657 34.2652 23.6763 34.3102C21.2567 36.1372 18.2163 36.954 15.1667 36.6075C17.71 38.1803 20.727 39.096 23.9703 39.096C34.6383 39.096 40.663 30.4088 40.299 22.617C41.4237 21.8385 42.3967 20.862 43.1667 19.7505Z" fill="url(#paint0_linear)"/>
<defs>
<linearGradient id="paint0_linear" x1="-8.89412" y1="63.8471" x2="53.5953" y2="-2.27263" gradientUnits="userSpaceOnUse">
<stop stop-color="#5AEDED"/>
<stop offset="1" stop-color="#6596F6" stop-opacity="0.79"/>
</linearGradient>
</defs>
</svg>
